<?xml version="1.0" encoding="UTF-8" standalone="no"?>
<!-- Created with Inkscape (http://www.inkscape.org/) -->

<svg
   xmlns:dc="http://purl.org/dc/elements/1.1/"
   xmlns:cc="http://creativecommons.org/ns#"
   xmlns:rdf="http://www.w3.org/1999/02/22-rdf-syntax-ns#"
   xmlns:svg="http://www.w3.org/2000/svg"
   xmlns="http://www.w3.org/2000/svg"
   version="1.1"
   width="100%"
   height="100%"
   viewBox="0 0 47.5 47.5"
   id="svg2"
   xml:space="preserve"><metadata
     id="metadata3051"><rdf:RDF><cc:Work
         rdf:about=""><dc:format>image/svg+xml</dc:format><dc:type
           rdf:resource="http://purl.org/dc/dcmitype/StillImage" /><dc:title></dc:title></cc:Work></rdf:RDF></metadata><defs
     id="defs6"><clipPath
       id="clipPath18"><path
         d="M 0,38 38,38 38,0 0,0 0,38 z"
         id="path20" /></clipPath></defs><g
     id="g3874"><g
       transform="matrix(1.25,0,0,-1.25,0,47.5)"
       id="g12"><g
         id="g14"><g
           clip-path="url(#clipPath18)"
           id="g16"><g
             transform="translate(1,33)"
             id="g22"><path
               d="m 0,0 c 0,2.209 1.791,4 4,4 l 28,0 c 2.209,0 4,-1.791 4,-4 l 0,-28 c 0,-2.209 -1.791,-4 -4,-4 l -28,0 c -2.209,0 -4,1.791 -4,4 L 0,0 z"
               id="path24"
               style="fill:#cc00ff;fill-opacity:1;fill-rule:nonzero;stroke:none" /></g><g
             transform="translate(16.7681,22.2007)"
             id="g26"><path
               d="m 23.75,8.28125 c -1.66625,0 -3.125,1.4725 -3.125,3.0625 0,1.705 1.45875,3.21875 3.125,3.21875 1.745,0 3.125,-1.475 3.125,-3.21875 0,-1.62875 -1.4575,-3.0625 -3.125,-3.0625 z m 0,8.375 c -1.62625,0 -2.78125,1.23375 -2.78125,3.09375 l 0,14.875 c 0,1.86 1.155,3.09375 2.78125,3.09375 1.62875,0 2.78125,-1.23375 2.78125,-3.09375 l 0,-14.875 c 0,-1.86 -1.1525,-3.09375 -2.78125,-3.09375 z"
               transform="matrix(0.8,0,0,-0.8,-16.7681,15.7993)"
               id="path3867"
               style="fill:#ffffff;fill-opacity:1;fill-rule:nonzero;stroke:none" /></g></g></g></g></g></svg>